<svg viewBox="0 0 128 128" xmlns="http://www.w3.org/2000/svg">
        <defs>
          <radialGradient id="magic-glow">
            <stop offset="0%" style="stop-color:#a78bfa;stop-opacity:0.8" />
            <stop offset="100%" style="stop-color:#7c3aed;stop-opacity:1" />
          </radialGradient>
        </defs>
        <ellipse cx="64" cy="68" rx="45" ry="50" fill="#a78bfa" opacity="0.2" />
        <rect x="35" y="40" width="58" height="65" rx="6" fill="url(#magic-glow)" stroke="#c4b5fd" stroke-width="3" />
        <path d="M 25 45 L 27 50 L 32 48 L 28 52 L 30 57 L 25 53 L 20 57 L 22 52 L 18 48 L 23 50 Z" fill="#fbbf24" />
        <path d="M 95 50 L 96 53 L 99 52 L 97 55 L 98 58 L 95 56 L 92 58 L 93 55 L 91 52 L 94 53 Z" fill="#fbbf24" />
        <path d="M 45 25 L 46 28 L 49 27 L 47 30 L 48 33 L 45 31 L 42 33 L 43 30 L 41 27 L 44 28 Z" fill="#fbbf24" />
        <path d="M 88 90 L 89 93 L 92 92 L 90 95 L 91 98 L 88 96 L 85 98 L 86 95 L 84 92 L 87 93 Z" fill="#fbbf24" />
        <text x="64" y="77" font-size="32" font-weight="bold" fill="#fef3c7" text-anchor="middle" font-family="sans-serif" stroke="#fbbf24" stroke-width="1">SJ</text>
        <circle cx="64" cy="95" r="7" fill="#fbbf24" stroke="#f59e0b" stroke-width="2" />
        <circle cx="64" cy="95" r="3" fill="#fef3c7" />
        <rect x="93" y="43" width="3" height="59" rx="1" fill="#e9d5ff" />
      </svg>